<svg class="icon" style="width: 1em;height: 1em;vertical-align: middle;fill: currentColor;overflow: hidden;" viewBox="0 0 1024 1024" version="1.1" xmlns="http://www.w3.org/2000/svg"><path d="M901.632 926.72c0 12.8-5.12 25.088-14.336 34.304-9.216 9.216-21.504 14.336-34.304 14.336H170.496c-12.8 0-25.6-5.12-34.304-14.336-9.216-9.216-14.336-21.504-14.336-34.304V48.64c0-12.8 5.12-25.6 14.336-34.304C144.896 5.12 157.696 0 170.496 0h418.816c12.8 0 25.6 5.12 34.816 14.336l263.68 263.68c9.216 9.216 14.336 21.504 14.336 34.816V926.72h-0.512z" fill="#EBECF0" /><path d="M901.632 926.72v48.64c0 12.8-5.12 25.6-14.336 34.304-9.216 9.216-21.504 14.336-34.304 14.336H170.496c-27.136 0-48.64-22.016-48.64-48.64v-48.64c0 12.8 5.12 25.088 14.336 34.304 9.216 9.216 21.504 14.336 34.304 14.336h682.496c27.136 0 48.64-22.016 48.64-48.64z" fill="#C1C7D0" /><path d="M24.064 536.576h975.36v243.712c0 27.136-22.016 48.64-48.64 48.64H73.216c-12.8 0-25.6-5.12-34.304-14.336-9.216-9.216-14.336-21.504-14.336-34.816v-243.2h-0.512z" fill="#3F8D45" /><path d="M121.856 536.576v-97.792l-97.792 97.792h97.792z m779.776 0l1.024-97.792 97.28 97.792h-98.304z" fill="#2D6832" /><path d="M901.632 312.832v6.656h-263.68c-27.136 0-48.64-22.016-48.64-48.64V0c12.8 0 25.6 5.12 34.816 14.336l264.192 263.68c8.704 9.216 13.824 21.504 13.312 34.816z" fill="#C1C7D0" /><path d="M422.703 778H380.97l-16.589-43.158h-75.949L272.75 778h-40.695l74.004-190h40.566z m-70.635-75.171l-26.18-70.504-25.662 70.504zM443.05 778V588h61.563c23.328 0 38.535 0.95 45.62 2.851 10.887 2.852 20.003 9.051 27.347 18.599 7.344 9.547 11.016 21.881 11.016 37.002 0 11.664-2.117 21.471-6.35 29.42-4.234 7.949-9.613 14.191-16.136 18.728-6.524 4.536-13.155 7.538-19.894 9.007-9.159 1.815-22.422 2.722-39.789 2.722h-25.014V778z m38.363-157.858v53.915h20.996c15.121 0 25.23-0.993 30.328-2.981 5.097-1.987 9.094-5.097 11.988-9.331 2.895-4.234 4.342-9.159 4.342-14.775 0-6.912-2.031-12.615-6.092-17.108s-9.201-7.301-15.422-8.424c-4.58-0.864-13.782-1.296-27.606-1.296zM620.608 778V588h38.363v84.372L736.475 588h51.582l-71.541 74.004L791.945 778h-49.638l-52.231-89.168-31.105 31.753V778z" fill="#FFFFFF" /></svg>