<svg class="icon" style="width: 1em;height: 1em;vertical-align: middle;fill: currentColor;overflow: hidden;" viewBox="0 0 1024 1024" version="1.1" xmlns="http://www.w3.org/2000/svg"><path d="M901.632 926.72c0 12.8-5.12 25.088-14.336 34.304-9.216 9.216-21.504 14.336-34.304 14.336H170.496c-12.8 0-25.6-5.12-34.304-14.336-9.216-9.216-14.336-21.504-14.336-34.304V48.64c0-12.8 5.12-25.6 14.336-34.304C144.896 5.12 157.696 0 170.496 0h418.816c12.8 0 25.6 5.12 34.816 14.336l263.68 263.68c9.216 9.216 14.336 21.504 14.336 34.816V926.72h-0.512z" fill="#EBECF0" /><path d="M901.632 926.72v48.64c0 12.8-5.12 25.6-14.336 34.304-9.216 9.216-21.504 14.336-34.304 14.336H170.496c-27.136 0-48.64-22.016-48.64-48.64v-48.64c0 12.8 5.12 25.088 14.336 34.304 9.216 9.216 21.504 14.336 34.304 14.336h682.496c27.136 0 48.64-22.016 48.64-48.64z" fill="#C1C7D0" /><path d="M24.064 536.576h975.36v243.712c0 27.136-22.016 48.64-48.64 48.64H73.216c-12.8 0-25.6-5.12-34.304-14.336-9.216-9.216-14.336-21.504-14.336-34.816v-243.2h-0.512z" fill="#B45A33" /><path d="M121.856 536.576v-97.792l-97.792 97.792h97.792z m779.776 0l1.024-97.792 97.28 97.792h-98.304z" fill="#853E22" /><path d="M901.632 312.832v6.656h-263.68c-27.136 0-48.64-22.016-48.64-48.64V0c12.8 0 25.6 5.12 34.816 14.336l264.192 263.68c8.704 9.216 13.824 21.504 13.312 34.816z" fill="#C1C7D0" /><path d="M335.826 588h37.593v118.256c0 15.462-1.36 27.355-4.078 35.681-3.653 10.874-10.28 19.603-19.88 26.187-9.599 6.584-22.258 9.876-37.974 9.876-18.435 0-32.622-5.161-42.562-15.483-9.94-10.322-14.952-25.465-15.037-45.429l35.553-4.078c0.425 10.704 1.997 18.265 4.715 22.683 4.078 6.711 10.28 10.067 18.605 10.067 8.411 0 14.357-2.4 17.841-7.2 3.483-4.8 5.224-14.761 5.224-29.883z m246.197 186.814h-41.032l-16.312-42.434h-74.674l-15.419 42.434h-40.014L467.335 588h39.886z m-69.45-73.91l-25.741-69.323-25.231 69.323z m89.585 73.91V588h79.389c19.965 0 34.47 1.678 43.518 5.034 9.048 3.355 16.29 9.323 21.727 17.904 5.437 8.58 8.156 18.392 8.156 29.436 0 14.018-4.121 25.593-12.361 34.725-8.241 9.133-20.559 14.888-36.955 17.267 8.155 4.758 14.888 9.982 20.198 15.674 5.309 5.692 12.467 15.802 21.472 30.329l22.81 36.445h-45.111l-27.27-40.65c-9.685-14.528-16.311-23.681-19.879-27.462-3.568-3.78-7.349-6.371-11.342-7.773-3.992-1.402-10.322-2.103-18.987-2.103h-7.646v77.988z m37.719-107.807h27.908c18.095 0 29.394-0.764 33.896-2.293 4.503-1.53 8.029-4.163 10.577-7.901 2.549-3.738 3.823-8.411 3.823-14.018 0-6.286-1.678-11.362-5.033-15.228-3.356-3.865-8.092-6.307-14.209-7.327-3.058-0.425-12.233-0.637-27.525-0.637h-29.437z" fill="#FFFFFF" /></svg>