<svg class="icon" style="width: 1em;height: 1em;vertical-align: middle;fill: currentColor;overflow: hidden;" viewBox="0 0 1024 1024" version="1.1" xmlns="http://www.w3.org/2000/svg"><path d="M901.632 926.72c0 12.8-5.12 25.088-14.336 34.304-9.216 9.216-21.504 14.336-34.304 14.336H170.496c-12.8 0-25.6-5.12-34.304-14.336-9.216-9.216-14.336-21.504-14.336-34.304V48.64c0-12.8 5.12-25.6 14.336-34.304C144.896 5.12 157.696 0 170.496 0h418.816c12.8 0 25.6 5.12 34.816 14.336l263.68 263.68c9.216 9.216 14.336 21.504 14.336 34.816V926.72h-0.512z" fill="#EBECF0" /><path d="M901.632 926.72v48.64c0 12.8-5.12 25.6-14.336 34.304-9.216 9.216-21.504 14.336-34.304 14.336H170.496c-27.136 0-48.64-22.016-48.64-48.64v-48.64c0 12.8 5.12 25.088 14.336 34.304 9.216 9.216 21.504 14.336 34.304 14.336h682.496c27.136 0 48.64-22.016 48.64-48.64z" fill="#C1C7D0" /><path d="M24.064 536.576h975.36v243.712c0 27.136-22.016 48.64-48.64 48.64H73.216c-12.8 0-25.6-5.12-34.304-14.336-9.216-9.216-14.336-21.504-14.336-34.816v-243.2h-0.512z" fill="#8B5E3C" /><path d="M121.856 536.576v-97.792l-97.792 97.792h97.792z m779.776 0l1.024-97.792 97.28 97.792h-98.304z" fill="#65422A" /><path d="M901.632 312.832v6.656h-263.68c-27.136 0-48.64-22.016-48.64-48.64V0c12.8 0 25.6 5.12 34.816 14.336l264.192 263.68c8.704 9.216 13.824 21.504 13.312 34.816z" fill="#C1C7D0" /><path d="M211.96 774.867V622.215h-54.518v-31.082h146.009v31.082h-54.393v152.652z m103.272-90.739c0-18.716 2.799-34.424 8.397-47.124 4.178-9.358 9.88-17.755 17.108-25.191 7.227-7.437 15.144-12.951 23.75-16.544 11.447-4.846 24.648-7.269 39.604-7.269 27.071 0 48.732 8.397 64.984 25.191 16.251 16.794 24.376 40.148 24.376 70.06 0 29.661-8.063 52.868-24.188 69.62C453.137 769.624 431.58 778 404.592 778c-27.322 0-49.045-8.334-65.171-25.003-16.126-16.669-24.189-39.625-24.189-68.869z m38.226-1.253c0 20.804 4.804 36.575 14.413 47.312 9.608 10.736 21.807 16.105 36.596 16.105 14.789 0 26.925-5.327 36.408-15.98 9.484-10.653 14.225-26.633 14.225-47.939 0-21.055-4.616-36.763-13.849-47.124-9.232-10.36-21.494-15.541-36.784-15.541s-27.614 5.243-36.972 15.729c-9.358 10.486-14.037 26.299-14.037 47.438z m168.443 91.992V591.133h55.521l33.338 125.33 32.962-125.33h55.646v183.734h-34.466V630.236l-36.471 144.631h-35.719l-36.345-144.631v144.631z m215.317 0v-182.23h37.097V743.91h92.243v30.957z" fill="#FFFFFF" /></svg>